HIERARCHY
ROOT Hips
{
	OFFSET 0.000000 100.481300 0.000000
	CHANNELS 6 Xposition Yposition Zposition Xrotation Yrotation Zrotation
	JOINT Spine
	{
		OFFSET -0.279200 12.230698 -2.892100
		CHANNELS 3 Xrotation Yrotation Zrotation
		JOINT Spine1
		{
			OFFSET -0.325700 14.269203 -3.374200
			CHANNELS 3 Xrotation Yrotation Zrotation
			JOINT Spine2
			{
				OFFSET -0.372300 16.307602 -0.352600
				CHANNELS 3 Xrotation Yrotation Zrotation
				JOINT Neck
				{
					OFFSET -0.418800 17.814194 8.416900
					CHANNELS 3 Xrotation Yrotation Zrotation
					JOINT Head
					{
						OFFSET 0.000000 7.031097 3.806800
						CHANNELS 3 Xrotation Yrotation Zrotation
						JOINT HeadTop_End
						{
							OFFSET 0.000000 24.646606 12.978600
							CHANNELS 3 Xrotation Yrotation Zrotation
							End Site
							{
								OFFSET 0.000000 27.854965 0.000000
							}
						}
					}
				}
				JOINT LeftShoulder
				{
					OFFSET 16.952999 14.495407 -7.737500
					CHANNELS 3 Xrotation Yrotation Zrotation
					JOINT LeftArm
					{
						OFFSET 9.308998 -2.777710 0.208600
						CHANNELS 3 Xrotation Yrotation Zrotation
						JOINT LeftForeArm
						{
							OFFSET 29.972298 0.000000 0.000000
							CHANNELS 3 Xrotation Yrotation Zrotation
							JOINT LeftHand
							{
								OFFSET 26.026505 0.000000 0.000000
								CHANNELS 3 Xrotation Yrotation Zrotation
								JOINT LeftHandThumb1
								{
									OFFSET 12.240501 -7.147949 9.207150
									CHANNELS 3 Xrotation Yrotation Zrotation
									JOINT LeftHandThumb2
									{
										OFFSET 4.138618 -2.389435 2.389433
										CHANNELS 3 Xrotation Yrotation Zrotation
										JOINT LeftHandThumb3
										{
											OFFSET 2.726913 -1.574387 1.574386
											CHANNELS 3 Xrotation Yrotation Zrotation
											JOINT LeftHandThumb4
											{
												OFFSET 3.941010 -2.275345 2.275342
												CHANNELS 3 Xrotation Yrotation Zrotation
												End Site
												{
													OFFSET -0.005798 5.087799 0.009903
												}
											}
										}
									}
								}
								JOINT LeftHandIndex1
								{
									OFFSET 24.424698 -1.985611 5.953459
									CHANNELS 3 Xrotation Yrotation Zrotation
									JOINT LeftHandIndex2
									{
										OFFSET 6.426697 0.000000 0.000000
										CHANNELS 3 Xrotation Yrotation Zrotation
										JOINT LeftHandIndex3
										{
											OFFSET 5.337898 0.000000 0.000000
											CHANNELS 3 Xrotation Yrotation Zrotation
											JOINT LeftHandIndex4
											{
												OFFSET 4.409401 0.000000 0.000000
												CHANNELS 3 Xrotation Yrotation Zrotation
												End Site
												{
													OFFSET 0.000000 4.409363 0.014373
												}
											}
										}
									}
								}
								JOINT LeftHandMiddle1
								{
									OFFSET 23.810104 0.000000 0.000000
									CHANNELS 3 Xrotation Yrotation Zrotation
									JOINT LeftHandMiddle2
									{
										OFFSET 7.176498 0.000000 0.000000
										CHANNELS 3 Xrotation Yrotation Zrotation
										JOINT LeftHandMiddle3
										{
											OFFSET 6.774902 0.000000 0.000000
											CHANNELS 3 Xrotation Yrotation Zrotation
											JOINT LeftHandMiddle4
											{
												OFFSET 5.403328 0.000000 0.000000
												CHANNELS 3 Xrotation Yrotation Zrotation
												End Site
												{
													OFFSET -0.027702 5.403244 0.017414
												}
											}
										}
									}
								}
								JOINT LeftHandRing1
								{
									OFFSET 22.908401 -0.839279 -6.020567
									CHANNELS 3 Xrotation Yrotation Zrotation
									JOINT LeftHandRing2
									{
										OFFSET 6.337502 0.000000 0.000000
										CHANNELS 3 Xrotation Yrotation Zrotation
										JOINT LeftHandRing3
										{
											OFFSET 5.779297 0.000000 0.000000
											CHANNELS 3 Xrotation Yrotation Zrotation
											JOINT LeftHandRing4
											{
												OFFSET 4.965698 0.000000 0.000000
												CHANNELS 3 Xrotation Yrotation Zrotation
												End Site
												{
													OFFSET 0.000000 4.965668 0.016186
												}
											}
										}
									}
								}
								JOINT LeftHandPinky1
								{
									OFFSET 20.037003 -1.530319 -10.950146
									CHANNELS 3 Xrotation Yrotation Zrotation
									JOINT LeftHandPinky2
									{
										OFFSET 5.254700 0.000000 0.000000
										CHANNELS 3 Xrotation Yrotation Zrotation
										JOINT LeftHandPinky3
										{
											OFFSET 4.810204 0.000000 0.000000
											CHANNELS 3 Xrotation Yrotation Zrotation
											JOINT LeftHandPinky4
											{
												OFFSET 3.647202 0.000000 0.000000
												CHANNELS 3 Xrotation Yrotation Zrotation
												End Site
												{
													OFFSET 0.000000 3.647186 0.011889
												}
											}
										}
									}
								}
							}
						}
					}
				}
				JOINT RightShoulder
				{
					OFFSET -15.141001 14.495407 -7.737500
					CHANNELS 3 Xrotation Yrotation Zrotation
					JOINT RightArm
					{
						OFFSET -9.308998 -2.777710 0.208500
						CHANNELS 3 Xrotation Yrotation Zrotation
						JOINT RightForeArm
						{
							OFFSET -29.972300 0.000000 0.000000
							CHANNELS 3 Xrotation Yrotation Zrotation
							JOINT RightHand
							{
								OFFSET -26.026505 0.000000 0.000000
								CHANNELS 3 Xrotation Yrotation Zrotation
								JOINT RightHandThumb1
								{
									OFFSET -12.240601 -7.148026 9.207092
									CHANNELS 3 Xrotation Yrotation Zrotation
									JOINT RightHandThumb2
									{
										OFFSET -4.138618 -2.389435 2.389433
										CHANNELS 3 Xrotation Yrotation Zrotation
										JOINT RightHandThumb3
										{
											OFFSET -2.726974 -1.574417 1.574421
											CHANNELS 3 Xrotation Yrotation Zrotation
											JOINT RightHandThumb4
											{
												OFFSET -3.941010 -2.275345 2.275343
												CHANNELS 3 Xrotation Yrotation Zrotation
												End Site
												{
													OFFSET 0.005814 5.087799 0.009927
												}
											}
										}
									}
								}
								JOINT RightHandIndex1
								{
									OFFSET -24.424698 -1.985657 5.953444
									CHANNELS 3 Xrotation Yrotation Zrotation
									JOINT RightHandIndex2
									{
										OFFSET -6.426697 0.000000 0.000000
										CHANNELS 3 Xrotation Yrotation Zrotation
										JOINT RightHandIndex3
										{
											OFFSET -5.337898 0.000000 0.000000
											CHANNELS 3 Xrotation Yrotation Zrotation
											JOINT RightHandIndex4
											{
												OFFSET -4.409401 0.000000 0.000000
												CHANNELS 3 Xrotation Yrotation Zrotation
												End Site
												{
													OFFSET 0.000000 4.409363 0.014408
												}
											}
										}
									}
								}
								JOINT RightHandMiddle1
								{
									OFFSET -23.810097 0.000000 0.000000
									CHANNELS 3 Xrotation Yrotation Zrotation
									JOINT RightHandMiddle2
									{
										OFFSET -7.176498 0.000000 0.000000
										CHANNELS 3 Xrotation Yrotation Zrotation
										JOINT RightHandMiddle3
										{
											OFFSET -6.774902 0.000000 0.000000
											CHANNELS 3 Xrotation Yrotation Zrotation
											JOINT RightHandMiddle4
											{
												OFFSET -5.403328 0.000000 0.000000
												CHANNELS 3 Xrotation Yrotation Zrotation
												End Site
												{
													OFFSET 0.027702 5.403244 0.017457
												}
											}
										}
									}
								}
								JOINT RightHandRing1
								{
									OFFSET -22.908302 -0.839325 -6.020576
									CHANNELS 3 Xrotation Yrotation Zrotation
									JOINT RightHandRing2
									{
										OFFSET -6.337502 0.000000 0.000000
										CHANNELS 3 Xrotation Yrotation Zrotation
										JOINT RightHandRing3
										{
											OFFSET -5.779297 0.000000 0.000000
											CHANNELS 3 Xrotation Yrotation Zrotation
											JOINT RightHandRing4
											{
												OFFSET -4.965698 0.000000 0.000000
												CHANNELS 3 Xrotation Yrotation Zrotation
												End Site
												{
													OFFSET 0.000000 4.965668 0.016226
												}
											}
										}
									}
								}
								JOINT RightHandPinky1
								{
									OFFSET -20.037003 -1.530334 -10.950259
									CHANNELS 3 Xrotation Yrotation Zrotation
									JOINT RightHandPinky2
									{
										OFFSET -5.254700 0.000000 0.000000
										CHANNELS 3 Xrotation Yrotation Zrotation
										JOINT RightHandPinky3
										{
											OFFSET -4.810204 0.000000 0.000000
											CHANNELS 3 Xrotation Yrotation Zrotation
											JOINT RightHandPinky4
											{
												OFFSET -3.647202 0.000000 0.000000
												CHANNELS 3 Xrotation Yrotation Zrotation
												End Site
												{
													OFFSET 0.000000 3.647186 0.011917
												}
											}
										}
									}
								}
							}
						}
					}
				}
			}
		}
	}
	JOINT LeftUpLeg
	{
		OFFSET 15.427100 -6.655098 0.678600
		CHANNELS 3 Xrotation Yrotation Zrotation
		JOINT LeftLeg
		{
			OFFSET 4.081073 -39.591068 13.024000
			CHANNELS 3 Xrotation Yrotation Zrotation
			JOINT LeftFoot
			{
				OFFSET -4.081074 -37.707932 -15.979700
				CHANNELS 3 Xrotation Yrotation Zrotation
				JOINT LeftToeBase
				{
					OFFSET 5.346399 -15.068900 20.645000
					CHANNELS 3 Xrotation Yrotation Zrotation
					JOINT LeftToe_End
					{
						OFFSET 2.754700 0.931300 11.300900
						CHANNELS 3 Xrotation Yrotation Zrotation
						End Site
						{
							OFFSET 0.000000 11.669021 0.000000
						}
					}
				}
			}
		}
	}
	JOINT RightUpLeg
	{
		OFFSET -15.569500 -6.655098 0.678600
		CHANNELS 3 Xrotation Yrotation Zrotation
		JOINT RightLeg
		{
			OFFSET -4.081825 -39.591045 13.023800
			CHANNELS 3 Xrotation Yrotation Zrotation
			JOINT RightFoot
			{
				OFFSET 4.081824 -37.707954 -15.979600
				CHANNELS 3 Xrotation Yrotation Zrotation
				JOINT RightToeBase
				{
					OFFSET -5.346400 -15.068900 20.645000
					CHANNELS 3 Xrotation Yrotation Zrotation
					JOINT RightToe_End
					{
						OFFSET -2.754700 0.931300 11.300900
						CHANNELS 3 Xrotation Yrotation Zrotation
						End Site
						{
							OFFSET 0.000000 11.669021 0.000000
						}
					}
				}
			}
		}
	}
}
MOTION
Frames: 5
Frame Time: 0.033333
0.858472 88.749542 -1.166755 -3.665468 1.549033 -2.112696 3.697964 1.247060 0.648011 2.239059 0.924919 -1.306675 2.220750 0.890423 -1.333665 -5.848173 0.348347 -2.098297 -11.952120 -1.237930 0.218902 0.000000 0.000000 -0.000001 0.741799 2.533771 -11.606076 -0.209723 -21.849044 -50.957630 0.000007 -26.854096 0.000028 14.397834 -0.315162 -22.224428 -2.166045 21.659621 8.959846 5.142513 23.266664 1.828525 0.105686 9.215964 3.273019 0.000000 0.000002 0.000003 0.329450 2.108304 -17.761050 0.514844 2.616976 -22.255739 0.129850 1.333551 -11.121986 -0.000001 0.000001 0.000000 0.328863 2.106465 -17.745045 0.515571 2.618774 -22.271749 0.129847 1.333553 -11.121995 -0.000000 -0.000002 -0.000002 0.329450 2.108304 -17.761050 0.514841 2.616979 -22.255736 0.129859 1.333551 -11.121997 0.000002 0.000000 -0.000002 1.554716 5.974056 -17.337011 0.519709 -1.441788 -22.729259 0.129845 1.333536 -11.122005 -0.000005 0.000001 -0.000001 1.704288 5.660949 10.773393 -0.665374 11.789239 55.750931 0.000006 25.967643 -0.000014 32.590248 -4.323010 26.740954 -2.399196 -19.981575 -9.251615 5.563988 -19.068012 -0.924574 -0.794375 -5.065673 -2.648881 -0.000001 -0.000001 -0.000001 0.515275 -2.631365 22.155153 0.366035 -2.230362 18.637734 0.092078 -1.130094 9.315310 0.000000 0.000003 -0.000003 0.515276 -2.631365 22.155153 0.366038 -2.230364 18.637735 0.092071 -1.130089 9.315315 0.000004 0.000001 -0.000005 0.515275 -2.631365 22.155153 0.366037 -2.230363 18.637735 0.092078 -1.130096 9.315313 -0.000001 0.000003 -0.000004 0.515275 -2.631365 22.155153 0.366039 -2.230366 18.637734 0.092074 -1.130092 9.315317 0.000001 0.000002 -0.000002 -23.976527 4.702794 6.588131 50.661658 8.491426 2.335846 -3.788173 0.254042 0.018979 -8.277768 0.922275 -7.365063 0.000000 0.000001 -0.000000 -11.218262 -10.432160 1.282897 35.277616 -4.887444 2.985754 -19.688003 0.438483 -2.643402 -0.000017 0.000002 -0.000000 0.000000 -0.000001 -0.000000 
0.547157 90.635262 2.076047 -4.040130 2.051038 -1.702935 3.931147 2.354727 -0.125498 2.438192 1.827805 -1.537954 2.411470 1.797222 -1.594336 -5.560742 -0.152791 -2.113056 -11.495003 -4.003112 1.495250 0.000000 0.000000 0.000000 0.743728 2.522515 -11.621606 0.298720 -21.718248 -50.874640 -0.000013 -26.954575 -0.000034 13.386947 -0.575237 -22.833357 -2.166043 21.659626 8.959843 5.142511 23.266667 1.828529 0.105688 9.215965 3.273019 0.000002 0.000001 0.000000 0.329443 2.108304 -17.761050 0.514842 2.616977 -22.255733 0.129849 1.333547 -11.121993 -0.000001 0.000000 -0.000006 0.328861 2.106466 -17.745043 0.515570 2.618771 -22.271748 0.129846 1.333553 -11.121994 -0.000001 -0.000002 -0.000001 0.329443 2.108304 -17.761050 0.514844 2.616978 -22.255739 0.129858 1.333551 -11.121994 0.000001 -0.000001 0.000001 1.554708 5.974060 -17.337013 0.519707 -1.441787 -22.729258 0.129848 1.333537 -11.122004 0.000001 0.000000 -0.000002 1.701948 5.704040 10.734865 -0.170086 12.488030 54.122026 0.000001 27.316537 -0.000007 34.925284 -1.783355 26.126136 -2.399190 -19.981573 -9.251617 5.563987 -19.068015 -0.924575 -0.794371 -5.065673 -2.648881 -0.000000 -0.000002 -0.000001 0.515279 -2.631364 22.155153 0.366038 -2.230361 18.637730 0.092076 -1.130093 9.315318 -0.000001 0.000001 -0.000003 0.515279 -2.631364 22.155153 0.366037 -2.230362 18.637730 0.092077 -1.130094 9.315323 -0.000002 -0.000001 0.000000 0.515277 -2.631364 22.155149 0.366037 -2.230364 18.637735 0.092075 -1.130095 9.315315 0.000001 0.000000 -0.000001 0.515279 -2.631364 22.155153 0.366039 -2.230364 18.637730 0.092072 -1.130091 9.315313 0.000000 0.000000 -0.000004 -25.087792 6.745803 6.222786 42.630387 7.404874 1.939022 -4.401344 0.110167 -0.301785 -0.107006 0.000450 -0.244432 0.000000 0.000001 0.000000 -6.051624 -10.829557 1.568489 31.205816 -4.900538 2.603837 -19.901914 0.156860 -1.723486 -0.000016 0.000003 0.000000 0.000000 0.000000 -0.000000 
0.272468 92.443405 5.048909 -4.287878 2.525427 -1.154824 4.082807 3.378677 -1.042394 2.542257 2.662860 -1.740542 2.502999 2.635661 -1.825290 -5.336154 -0.616669 -2.129192 -10.970716 -6.581954 2.734867 0.000001 0.000001 0.000000 0.745162 2.514522 -11.631305 1.196666 -21.606789 -50.588322 -0.000005 -27.167508 0.000005 12.641026 -0.917756 -23.789728 -2.166040 21.659623 8.959842 5.142512 23.266667 1.828525 0.105689 9.215967 3.273017 0.000000 0.000001 -0.000000 0.329449 2.108306 -17.761050 0.514851 2.616978 -22.255738 0.129847 1.333548 -11.121988 0.000002 -0.000000 0.000001 0.328865 2.106465 -17.745047 0.515571 2.618772 -22.271749 0.129850 1.333553 -11.122004 0.000000 0.000000 -0.000001 0.329449 2.108306 -17.761050 0.514846 2.616979 -22.255738 0.129852 1.333553 -11.121997 -0.000001 -0.000002 -0.000001 1.554716 5.974061 -17.337015 0.519703 -1.441788 -22.729261 0.129839 1.333536 -11.121999 -0.000003 0.000000 -0.000001 1.697812 5.737273 10.694297 0.452322 13.077480 52.513172 0.000000 28.731116 0.000016 36.273721 0.224777 25.183671 -2.399190 -19.981573 -9.251618 5.563984 -19.068015 -0.924574 -0.794374 -5.065669 -2.648881 0.000000 -0.000001 -0.000002 0.515277 -2.631366 22.155155 0.366039 -2.230361 18.637735 0.092076 -1.130095 9.315318 0.000000 0.000000 0.000001 0.515278 -2.631365 22.155155 0.366039 -2.230362 18.637735 0.092074 -1.130093 9.315323 0.000000 -0.000000 -0.000003 0.515277 -2.631365 22.155151 0.366040 -2.230363 18.637740 0.092076 -1.130095 9.315321 0.000001 -0.000000 -0.000001 0.515277 -2.631366 22.155155 0.366041 -2.230364 18.637734 0.092076 -1.130093 9.315318 -0.000000 -0.000001 0.000001 -25.911957 8.819746 5.594084 34.006064 6.150007 1.601681 -4.818555 0.006227 -0.837345 -0.000001 -0.000002 0.000000 -0.000000 0.000001 -0.000000 -1.419394 -11.121927 1.736137 27.153685 -5.069219 2.153028 -19.688790 -0.123926 -0.685087 -0.000011 0.000008 -0.000001 -0.000000 0.000001 -0.000000 
0.000626 94.015862 7.769388 -4.264480 2.962653 -0.568089 4.089961 4.280123 -2.034613 2.494545 3.389703 -1.899198 2.438579 3.363477 -2.011403 -5.258886 -1.009515 -2.148609 -10.468408 -8.797097 3.880598 -0.000001 0.000000 -0.000000 0.746362 2.501105 -11.630244 2.575193 -21.374512 -50.024531 0.000000 -27.460282 0.000006 12.251224 -1.160890 -25.032848 -2.166043 21.659624 8.959843 5.142516 23.266665 1.828528 0.105687 9.215967 3.273022 -0.000001 -0.000001 -0.000000 0.329450 2.108301 -17.761050 0.514842 2.616977 -22.255734 0.129848 1.333550 -11.121989 -0.000000 -0.000001 0.000000 0.328867 2.106463 -17.745043 0.515570 2.618773 -22.271749 0.129848 1.333553 -11.122000 -0.000000 -0.000002 -0.000001 0.329450 2.108301 -17.761051 0.514843 2.616978 -22.255738 0.129859 1.333551 -11.121991 0.000002 0.000001 0.000001 1.554716 5.974059 -17.337015 0.519709 -1.441789 -22.729259 0.129844 1.333535 -11.122002 0.000002 -0.000002 0.000001 1.687050 5.732124 10.644773 1.129523 13.473425 51.026141 0.000005 30.265733 -0.000012 36.094073 1.381573 23.933905 -2.399193 -19.981575 -9.251613 5.563986 -19.068012 -0.924574 -0.794369 -5.065670 -2.648879 -0.000003 -0.000001 -0.000001 0.515276 -2.631365 22.155151 0.366037 -2.230360 18.637735 0.092076 -1.130095 9.315318 -0.000000 0.000001 -0.000004 0.515276 -2.631364 22.155151 0.366038 -2.230362 18.637735 0.092076 -1.130093 9.315320 -0.000000 -0.000000 0.000000 0.515275 -2.631364 22.155151 0.366038 -2.230363 18.637737 0.092076 -1.130095 9.315313 0.000001 0.000000 -0.000001 0.515276 -2.631365 22.155151 0.366038 -2.230364 18.637735 0.092076 -1.130094 9.315315 0.000001 0.000000 0.000001 -26.449686 10.760586 4.779268 24.841702 4.764737 1.191317 -5.270816 0.030077 -1.487705 -0.000000 -0.000001 -0.000000 -0.000000 -0.000002 -0.000000 2.502583 -11.217793 1.882193 23.327456 -5.498123 1.660692 -19.247813 -0.356931 0.393541 -0.000001 0.000002 -0.000001 0.000000 0.000000 -0.000000 
-0.240583 94.822922 10.332462 -3.722385 3.308780 -0.395714 3.826510 5.014090 -2.684181 2.205124 3.902270 -1.975515 2.129497 3.869906 -2.114478 -5.495259 -1.264285 -2.177853 -10.320334 -10.302119 4.841685 -0.000001 -0.000000 -0.000000 0.748038 2.476640 -11.625377 4.538023 -20.793855 -49.124288 -0.000001 -27.877952 -0.000005 12.460739 -1.068003 -26.283166 -2.166045 21.659621 8.959845 5.142514 23.266667 1.828527 0.105688 9.215963 3.273022 0.000000 0.000001 -0.000002 0.329446 2.108302 -17.761048 0.514846 2.616977 -22.255741 0.129849 1.333552 -11.121991 0.000001 -0.000003 -0.000002 0.328865 2.106465 -17.745045 0.515572 2.618772 -22.271746 0.129850 1.333552 -11.121998 -0.000001 0.000000 -0.000001 0.329446 2.108302 -17.761050 0.514842 2.616979 -22.255736 0.129855 1.333552 -11.121991 -0.000002 -0.000000 -0.000004 1.554717 5.974058 -17.337013 0.519706 -1.441790 -22.729263 0.129844 1.333538 -11.122003 -0.000001 0.000001 -0.000001 1.663349 5.647369 10.579389 1.700944 13.559630 49.813758 0.000015 32.003097 -0.000010 33.918122 1.411182 22.487517 -2.399194 -19.981575 -9.251617 5.563985 -19.068015 -0.924576 -0.794369 -5.065674 -2.648882 -0.000001 0.000001 -0.000000 0.515276 -2.631366 22.155155 0.366038 -2.230360 18.637732 0.092076 -1.130095 9.315319 -0.000001 -0.000000 0.000003 0.515276 -2.631365 22.155153 0.366038 -2.230361 18.637730 0.092076 -1.130093 9.315320 0.000000 0.000000 0.000000 0.515275 -2.631365 22.155153 0.366038 -2.230363 18.637739 0.092075 -1.130095 9.315318 0.000002 0.000000 -0.000001 0.515276 -2.631366 22.155153 0.366038 -2.230364 18.637730 0.092075 -1.130094 9.315317 -0.000000 0.000000 -0.000000 -27.091498 12.290418 4.439949 16.212806 3.591501 0.100396 -6.620747 0.300858 -1.766333 0.000002 0.000003 -0.000000 0.000001 0.000001 0.000001 5.376005 -10.961414 2.366373 20.335934 -6.270429 1.247276 -19.127853 -0.439859 1.199800 -0.000001 0.000003 -0.000000 -0.000000 0.000003 -0.000000 
